HIERARCHY
ROOT root
{
	OFFSET 0.000000 0.000000 0.000000
	CHANNELS 6 Xposition Yposition Zposition Zrotation Yrotation Xrotation
	JOINT lhip
	{
		OFFSET 0.058581 -0.082280 -0.017664
		CHANNELS 3 Zrotation Yrotation Xrotation
		JOINT lknee
		{
			OFFSET 0.043451 -0.386469 0.008037
			CHANNELS 3 Zrotation Yrotation Xrotation
			JOINT lankle
			{
				OFFSET -0.014790 -0.426874 -0.037428
				CHANNELS 3 Zrotation Yrotation Xrotation
				JOINT ltoe
				{
					OFFSET 0.041054 -0.060286 0.122042
					CHANNELS 3 Zrotation Yrotation Xrotation
					End Site
					{
						OFFSET 0.000000 0.000000 0.000000
					}
				}
			}
		}
	}
	JOINT rhip
	{
		OFFSET -0.060310 -0.090513 -0.013543
		CHANNELS 3 Zrotation Yrotation Xrotation
		JOINT rknee
		{
			OFFSET -0.043257 -0.383688 -0.004843
			CHANNELS 3 Zrotation Yrotation Xrotation
			JOINT rankle
			{
				OFFSET 0.019056 -0.420046 -0.034562
				CHANNELS 3 Zrotation Yrotation Xrotation
				JOINT rtoe
				{
					OFFSET -0.034840 -0.062106 0.130323
					CHANNELS 3 Zrotation Yrotation Xrotation
					End Site
					{
						OFFSET 0.000000 0.000000 0.000000
					}
				}
			}
		}
	}
	JOINT lowerback
	{
		OFFSET 0.004439 0.124404 -0.038385
		CHANNELS 3 Zrotation Yrotation Xrotation
		JOINT upperback
		{
			OFFSET 0.004488 0.137956 0.026820
			CHANNELS 3 Zrotation Yrotation Xrotation
			JOINT chest
			{
				OFFSET -0.002265 0.056032 0.002855
				CHANNELS 3 Zrotation Yrotation Xrotation
				JOINT lowerneck
				{
					OFFSET -0.013390 0.211636 -0.033468
					CHANNELS 3 Zrotation Yrotation Xrotation
					JOINT upperneck
					{
						OFFSET 0.010113 0.088937 0.050410
						CHANNELS 3 Zrotation Yrotation Xrotation
						End Site
						{
							OFFSET 0.000000 0.000000 0.000000
						}
					}
				}
				JOINT lclavicle
				{
					OFFSET 0.071702 0.114000 -0.018898
					CHANNELS 3 Zrotation Yrotation Xrotation
					JOINT lshoulder
					{
						OFFSET 0.122921 0.045205 -0.019046
						CHANNELS 3 Zrotation Yrotation Xrotation
						JOINT lelbow
						{
							OFFSET 0.255332 -0.015649 -0.022946
							CHANNELS 3 Zrotation Yrotation Xrotation
							JOINT lwrist
							{
								OFFSET 0.265709 0.012698 -0.007375
								CHANNELS 3 Zrotation Yrotation Xrotation
								End Site
								{
									OFFSET 0.000000 0.000000 0.000000
								}
							}
						}
					}
				}
				JOINT rclavicle
				{
					OFFSET -0.082954 0.112472 -0.023707
					CHANNELS 3 Zrotation Yrotation Xrotation
					JOINT rshoulder
					{
						OFFSET -0.113228 0.046853 -0.008472
						CHANNELS 3 Zrotation Yrotation Xrotation
						JOINT relbow
						{
							OFFSET -0.260127 -0.014369 -0.031269
							CHANNELS 3 Zrotation Yrotation Xrotation
							JOINT rwrist
							{
								OFFSET -0.269108 0.006794 -0.006027
								CHANNELS 3 Zrotation Yrotation Xrotation
								End Site
								{
									OFFSET 0.000000 0.000000 0.000000
								}
							}
						}
					}
				}
			}
		}
	}
}
MOTION
Frames: 10
Frame Time: 0.033333
-0.071427 0.792931 1.044293 93.307912 -1.218606 84.272564 -5.037207 0.018197 6.291067 -3.693312 -7.590696 5.304860 5.580656 18.429642 -12.616491 0.000000 -0.000000 0.000000 -4.503562 -1.962609 -15.891619 1.124622 -9.095465 51.284047 0.037905 -15.574738 -8.912637 0.000000 -0.000000 0.000000 -1.159508 -2.944134 5.349653 4.289736 -4.391453 6.492783 0.823014 -2.159521 -2.486315 -3.250480 -7.723140 0.925533 4.683939 -1.898664 -7.021564 -22.135372 -4.368993 2.658360 -58.410821 -9.055330 18.542157 7.681306 -34.130035 6.353359 -6.685238 -14.399552 2.984776 20.171373 -1.486216 -2.026346 58.644314 -12.450589 8.273732 -8.751103 34.941400 -4.969612 4.472600 13.028885 -13.323482 
-0.034970 0.793934 1.043458 95.786294 -0.835058 83.901166 -4.195930 1.335601 10.505275 -3.117035 -10.683636 2.635965 4.081947 17.764725 -13.798587 0.000000 -0.000000 0.000000 -4.322150 -1.983404 -17.948866 2.004639 -9.559841 42.305082 -0.637531 -16.204617 -10.383845 0.000000 -0.000000 0.000000 -1.122150 -4.625075 5.856682 4.441938 -5.075057 6.476886 1.049981 -3.084961 -2.288720 -3.699862 -7.066282 0.369760 5.011565 -2.281118 -6.223749 -22.127512 -5.725853 3.008073 -55.409172 -14.440770 18.458535 5.523744 -35.947440 5.130933 -4.729417 -15.451436 3.914249 19.602377 -2.359281 -2.313235 58.314218 -14.581920 7.454939 -7.572105 35.258335 -4.295110 4.456696 13.102854 -13.301248 
0.000940 0.794011 1.039175 97.680224 -1.001738 84.330566 -3.670809 2.406709 13.480064 -2.426248 -12.890324 0.562717 2.919629 16.895949 -15.109616 0.000000 -0.000000 0.000000 -4.490921 -2.366656 -19.880837 2.402695 -8.273684 31.382040 -0.145835 -15.896678 -11.062362 0.000000 -0.000000 0.000000 -1.788275 -5.371517 5.786947 4.701688 -5.867182 6.743606 1.557139 -3.898470 -2.878799 -4.315660 -6.757411 0.957372 5.725401 -2.214144 -6.902263 -22.304452 -7.368074 3.573995 -52.422363 -18.211582 17.955588 5.259708 -38.781280 2.880409 -3.546950 -16.428779 4.361956 19.038918 -2.888741 -2.604047 57.759514 -17.460734 7.186692 -7.361194 35.722702 -2.915374 5.155092 13.722517 -13.992498 
0.038572 0.793113 1.031553 98.890180 -1.281195 84.640281 -2.450798 3.920114 16.058469 -2.839695 -14.178222 -0.118832 1.568375 15.489607 -17.170825 0.000000 -0.000000 0.000000 -4.623771 -2.192650 -20.742106 2.344610 -6.622080 19.296445 0.238537 -15.739860 -11.239322 0.000000 -0.000000 0.000000 -2.460085 -5.981864 5.688268 4.787612 -6.413868 6.968673 1.772754 -4.482619 -3.055370 -4.333626 -5.944203 0.952082 6.168090 -2.707554 -7.172649 -22.117655 -8.300272 3.694989 -49.501594 -22.229550 17.476657 4.815976 -40.579906 0.749939 -1.999122 -17.618888 3.735910 18.898456 -3.694547 -2.587350 57.281146 -18.851703 7.079013 -6.940822 35.176785 -2.406133 4.252397 13.959215 -15.191437 
0.077142 0.792818 1.021659 99.354362 -1.857070 85.476107 -2.034921 5.072797 18.080879 -2.779307 -14.687497 -0.643339 0.656727 14.750407 -19.270825 0.000000 -0.000000 0.000000 -4.876430 -2.551063 -22.423050 2.406629 -2.402403 9.219742 0.747204 -13.542790 -10.699290 0.000000 -0.000000 0.000000 -2.959763 -6.041430 4.622617 4.736741 -6.897554 7.543209 1.794899 -4.816173 -3.317997 -4.633367 -5.953259 0.968426 6.637055 -2.985446 -7.075528 -22.424170 -9.168883 3.892000 -46.825086 -25.479238 16.506270 5.565045 -42.144152 -2.552743 -1.999544 -18.284001 4.938640 18.921483 -4.455656 -2.478331 56.547109 -19.799679 6.451935 -7.000250 34.464192 -2.669692 5.808610 13.728948 -13.939457 
0.117121 0.790681 1.012130 100.080613 -2.187062 86.261232 -0.852372 5.891433 19.698419 -3.360970 -15.208504 -0.198481 -0.140654 13.831978 -20.975838 0.000000 -0.000000 0.000000 -5.170058 -2.213299 -23.586283 1.777066 1.536807 2.338602 1.885264 -10.999077 -10.338785 0.000000 -0.000000 0.000000 -3.195065 -6.232006 3.493672 4.738335 -7.522853 8.837194 1.716929 -5.199949 -4.466352 -4.812672 -5.345213 1.405836 6.954515 -3.118409 -6.899979 -22.819295 -9.593269 4.114082 -44.609889 -27.835795 15.704137 6.168040 -43.435334 -4.737487 -1.721158 -19.109023 5.047520 19.125751 -5.231712 -1.935809 56.473938 -20.085364 5.833818 -7.829507 32.885373 -3.279913 5.431089 14.797197 -12.749484 
0.161220 0.788336 1.004294 100.742027 -2.087609 86.134093 0.964343 6.344929 22.439394 -3.754564 -16.623998 0.608736 -1.440494 13.534822 -21.979030 0.000000 -0.000000 0.000000 -5.250801 -1.890492 -24.607989 2.085414 0.656115 3.427359 1.843283 -11.281323 -11.632068 0.000000 -0.000000 0.000000 -3.162714 -7.256146 3.575817 4.740063 -7.363446 8.624431 1.622825 -5.454003 -4.250748 -4.628762 -5.227223 1.213760 6.897764 -3.381090 -6.743279 -23.286517 -8.935324 4.417897 -43.838576 -29.877104 14.554003 7.109531 -44.725204 -6.499073 -2.051301 -18.947970 6.056414 19.551733 -5.950796 -1.678588 56.129558 -19.574978 4.345830 -8.942421 31.169568 -4.314013 6.348000 14.293457 -10.806828 
0.206938 0.784122 0.998592 101.510215 -1.895486 85.577120 2.778052 6.231782 25.200370 -4.218264 -18.142969 2.636565 -2.478787 13.807273 -21.739747 0.000000 -0.000000 0.000000 -5.195007 -1.266111 -25.330087 2.742597 -1.651481 9.975073 1.170665 -12.443775 -10.997334 0.000000 -0.000000 0.000000 -3.420209 -8.605053 3.892758 4.883550 -7.124420 8.447475 1.472369 -5.623220 -3.679509 -4.187253 -4.203659 1.161331 6.683040 -3.797872 -6.609738 -24.232424 -8.306991 4.404734 -42.099538 -31.769532 12.931355 5.722864 -44.605925 -6.343142 -1.235172 -20.843155 6.924215 20.399725 -5.765515 -1.623107 55.983883 -18.937871 3.163656 -10.368910 29.045070 -4.903933 5.981240 13.965156 -9.955170 
0.255099 0.779746 0.996023 101.878861 -1.358934 85.910752 4.623732 5.608321 26.279585 -5.423467 -18.186619 6.364326 -2.960763 13.640693 -20.960009 0.000000 -0.000000 0.000000 -5.162956 -0.279216 -25.379756 3.709662 -3.968952 14.215980 -0.083038 -11.893830 -5.226528 0.000000 -0.000000 0.000000 -2.893938 -9.668175 2.745673 5.245496 -7.027906 9.128980 1.012900 -5.506099 -4.332873 -3.685925 -3.552655 1.704754 5.866756 -4.170478 -6.174194 -24.897490 -7.516143 5.320804 -42.508833 -31.076521 12.458161 6.456076 -45.920538 -6.771760 -2.324295 -20.711226 7.779461 21.042780 -5.869909 -1.315683 56.384880 -18.309672 1.883361 -12.909598 27.079834 -6.531989 7.257270 14.373386 -10.147256 
0.303006 0.775218 0.998394 101.438880 -0.846418 86.036686 6.084740 5.365875 25.174141 -7.248678 -14.274709 14.065332 -4.592488 12.951609 -16.279391 0.000000 -0.000000 0.000000 -4.666405 0.044321 -25.968552 5.218911 -4.067542 20.323850 -1.030305 -10.616175 -4.235984 0.000000 -0.000000 0.000000 -2.064388 -9.692939 1.306269 5.276426 -6.932220 10.897448 0.761761 -5.480830 -5.270558 -3.346790 -3.188952 2.122344 4.937833 -4.260202 -6.135167 -26.111840 -6.673891 5.712044 -44.339314 -28.535317 13.058799 9.006662 -47.581005 -6.856537 -6.826324 -19.248049 9.198382 21.872084 -5.668637 -0.719457 56.554582 -17.140658 1.525817 -14.745752 26.113626 -8.624703 8.998827 13.458620 -9.495686 
